<svg xmlns="http://www.w3.org/2000/svg" viewBox="0 0 800 750" width="100%" style="font-family: -apple-system, BlinkMacSystemFont, 'Segoe UI', Roboto, sans-serif; background: #f8f9fa;">
<rect width="100%" height="100%" fill="#f8f9fa"/>
<text x="400.0" y="35" text-anchor="middle" fill="#212529" font-size="22" font-weight="bold">Coi vs React vs Vue vs Svelte Benchmark</text>
<text x="400.0" y="52" text-anchor="middle" fill="#6c757d" font-size="11">Chrome 143.0.0.0</text>
<rect x="240.0" y="60" width="14" height="14" fill="#9477ff" rx="3"/>
<text x="260.0" y="72" fill="#212529" font-size="13" font-weight="600">Coi</text>
<rect x="325.0" y="60" width="14" height="14" fill="#00d8ff" rx="3"/>
<text x="345.0" y="72" fill="#212529" font-size="13" font-weight="600">React</text>
<rect x="410.0" y="60" width="14" height="14" fill="#42b883" rx="3"/>
<text x="430.0" y="72" fill="#212529" font-size="13" font-weight="600">Vue</text>
<rect x="495.0" y="60" width="14" height="14" fill="#e97d30" rx="3"/>
<text x="515.0" y="72" fill="#212529" font-size="13" font-weight="600">Svelte</text>
<text x="400.0" y="105" text-anchor="middle" fill="#212529" font-size="16" font-weight="bold">Bundle Size</text>
<text x="400.0" y="123" text-anchor="middle" fill="#6c757d" font-size="12">Counter App - Smaller is better (KB)</text>
<text x="168" y="168" text-anchor="end" fill="#212529" font-size="13" font-weight="bold">Svelte</text>
<rect x="180" y="150" width="89.48875944735954" height="26" fill="#e97d30" rx="4"/>
<text x="277.48875944735954" y="168" fill="#212529" font-size="13" font-weight="bold">28.2 KB ★</text>
<text x="168" y="204" text-anchor="end" fill="#212529" font-size="13" font-weight="bold">Coi</text>
<rect x="180" y="186" width="121.85907531067113" height="26" fill="#9477ff" rx="4"/>
<text x="309.85907531067113" y="204" fill="#212529" font-size="13" font-weight="normal">38.5 KB</text>
<text x="168" y="240" text-anchor="end" fill="#212529" font-size="13" font-weight="bold">Vue</text>
<rect x="180" y="222" width="195.09768862053076" height="26" fill="#42b883" rx="4"/>
<text x="383.0976886205308" y="240" fill="#212529" font-size="13" font-weight="normal">61.6 KB</text>
<text x="168" y="276" text-anchor="end" fill="#212529" font-size="13" font-weight="bold">React</text>
<rect x="180" y="258" width="450.0" height="26" fill="#00d8ff" rx="4"/>
<text x="638.0" y="276" fill="#212529" font-size="13" font-weight="normal">142.0 KB</text>
<text x="400.0" y="324" text-anchor="middle" fill="#212529" font-size="16" font-weight="bold">DOM Performance</text>
<text x="400.0" y="342" text-anchor="middle" fill="#6c757d" font-size="12">Rows App - Lower is better (ms)</text>
<text x="168" y="393" text-anchor="end" fill="#212529" font-size="12" font-weight="bold">Create 1,000 rows</text>
<rect x="180" y="369" width="273.76" height="18" fill="#42b883" rx="3"/>
<text x="461.76" y="382" fill="#212529" font-size="11" font-weight="bold">68.4ms ★</text>
<rect x="180" y="391" width="292.8" height="18" fill="#e97d30" rx="3"/>
<text x="480.8" y="404" fill="#212529" font-size="11" font-weight="normal">73.2ms</text>
<rect x="180" y="413" width="298.4" height="18" fill="#00d8ff" rx="3"/>
<text x="486.4" y="426" fill="#212529" font-size="11" font-weight="normal">74.6ms</text>
<rect x="180" y="435" width="380.0" height="18" fill="#9477ff" rx="3"/>
<text x="568.0" y="448" fill="#212529" font-size="11" font-weight="normal">95.0ms</text>
<text x="168" y="484" text-anchor="end" fill="#212529" font-size="12" font-weight="bold">Update 1,000 rows</text>
<rect x="180" y="460" width="48.599999999999994" height="18" fill="#9477ff" rx="3"/>
<text x="236.6" y="473" fill="#212529" font-size="11" font-weight="bold">12.1ms ★</text>
<rect x="180" y="482" width="144.96" height="18" fill="#42b883" rx="3"/>
<text x="332.96000000000004" y="495" fill="#212529" font-size="11" font-weight="normal">36.2ms</text>
<rect x="180" y="504" width="159.76" height="18" fill="#00d8ff" rx="3"/>
<text x="347.76" y="517" fill="#212529" font-size="11" font-weight="normal">39.9ms</text>
<rect x="180" y="526" width="160.88" height="18" fill="#e97d30" rx="3"/>
<text x="348.88" y="539" fill="#212529" font-size="11" font-weight="normal">40.2ms</text>
<text x="168" y="575" text-anchor="end" fill="#212529" font-size="12" font-weight="bold">Swap rows</text>
<rect x="180" y="551" width="39.4" height="18" fill="#e97d30" rx="3"/>
<text x="227.4" y="564" fill="#212529" font-size="11" font-weight="bold">9.8ms ★</text>
<rect x="180" y="573" width="48.8" height="18" fill="#9477ff" rx="3"/>
<text x="236.8" y="586" fill="#212529" font-size="11" font-weight="normal">12.2ms</text>
<rect x="180" y="595" width="66.88" height="18" fill="#42b883" rx="3"/>
<text x="254.88" y="608" fill="#212529" font-size="11" font-weight="normal">16.7ms</text>
<rect x="180" y="617" width="266.32" height="18" fill="#00d8ff" rx="3"/>
<text x="454.32" y="630" fill="#212529" font-size="11" font-weight="normal">66.6ms</text>
<text x="168" y="666" text-anchor="end" fill="#212529" font-size="12" font-weight="bold">Clear rows</text>
<rect x="180" y="642" width="11.92" height="18" fill="#00d8ff" rx="3"/>
<text x="199.92" y="655" fill="#212529" font-size="11" font-weight="bold">3.0ms ★</text>
<rect x="180" y="664" width="16.64" height="18" fill="#e97d30" rx="3"/>
<text x="204.64" y="677" fill="#212529" font-size="11" font-weight="normal">4.2ms</text>
<rect x="180" y="686" width="19.12" height="18" fill="#42b883" rx="3"/>
<text x="207.12" y="699" fill="#212529" font-size="11" font-weight="normal">4.8ms</text>
<rect x="180" y="708" width="48.53333333333333" height="18" fill="#9477ff" rx="3"/>
<text x="236.53333333333333" y="721" fill="#212529" font-size="11" font-weight="normal">12.1ms</text>
</svg>