<svg xmlns="http://www.w3.org/2000/svg" viewBox="0 0 800 750" width="100%" style="font-family: -apple-system, BlinkMacSystemFont, 'Segoe UI', Roboto, sans-serif; background: #f8f9fa;">
<rect width="100%" height="100%" fill="#f8f9fa"/>
<text x="400.0" y="35" text-anchor="middle" fill="#212529" font-size="22" font-weight="bold">Coi vs React vs Vue vs Svelte Benchmark</text>
<text x="400.0" y="52" text-anchor="middle" fill="#6c757d" font-size="11">Chrome 143.0.0.0</text>
<rect x="240.0" y="60" width="14" height="14" fill="#9477ff" rx="3"/>
<text x="260.0" y="72" fill="#212529" font-size="13" font-weight="600">Coi</text>
<rect x="325.0" y="60" width="14" height="14" fill="#00d8ff" rx="3"/>
<text x="345.0" y="72" fill="#212529" font-size="13" font-weight="600">React</text>
<rect x="410.0" y="60" width="14" height="14" fill="#42b883" rx="3"/>
<text x="430.0" y="72" fill="#212529" font-size="13" font-weight="600">Vue</text>
<rect x="495.0" y="60" width="14" height="14" fill="#e97d30" rx="3"/>
<text x="515.0" y="72" fill="#212529" font-size="13" font-weight="600">Svelte</text>
<text x="400.0" y="105" text-anchor="middle" fill="#212529" font-size="16" font-weight="bold">Bundle Size</text>
<text x="400.0" y="123" text-anchor="middle" fill="#6c757d" font-size="12">Counter App - Smaller is better (KB)</text>
<text x="400.0" y="180" text-anchor="middle" fill="#212529" font-size="16" font-weight="bold">DOM Performance</text>
<text x="400.0" y="198" text-anchor="middle" fill="#6c757d" font-size="12">Rows App - Lower is better (ms)</text>
<text x="168" y="249" text-anchor="end" fill="#212529" font-size="12" font-weight="bold">Create 1,000 rows</text>
<rect x="180" y="225" width="339.8093909562849" height="18" fill="#00d8ff" rx="3"/>
<text x="527.8093909562849" y="238" fill="#212529" font-size="11" font-weight="bold">76.9ms ★</text>
<rect x="180" y="247" width="342.9009762784773" height="18" fill="#42b883" rx="3"/>
<text x="530.9009762784773" y="260" fill="#212529" font-size="11" font-weight="normal">77.6ms</text>
<rect x="180" y="269" width="353.412366321282" height="18" fill="#e97d30" rx="3"/>
<text x="541.412366321282" y="282" fill="#212529" font-size="11" font-weight="normal">80.0ms</text>
<rect x="180" y="291" width="380.0" height="18" fill="#9477ff" rx="3"/>
<text x="568.0" y="304" fill="#212529" font-size="11" font-weight="normal">86.0ms</text>
<text x="168" y="340" text-anchor="end" fill="#212529" font-size="12" font-weight="bold">Update 1,000 rows</text>
<rect x="180" y="316" width="46.37377963545042" height="18" fill="#9477ff" rx="3"/>
<text x="234.37377963545043" y="329" fill="#212529" font-size="11" font-weight="bold">10.5ms ★</text>
<rect x="180" y="338" width="174.45374243812302" height="18" fill="#00d8ff" rx="3"/>
<text x="362.453742438123" y="351" fill="#212529" font-size="11" font-weight="normal">39.5ms</text>
<rect x="180" y="360" width="181.87354719822238" height="18" fill="#e97d30" rx="3"/>
<text x="369.87354719822235" y="373" fill="#212529" font-size="11" font-weight="normal">41.2ms</text>
<rect x="180" y="382" width="228.42398882763945" height="18" fill="#42b883" rx="3"/>
<text x="416.42398882763945" y="395" fill="#212529" font-size="11" font-weight="normal">51.7ms</text>
<text x="168" y="431" text-anchor="end" fill="#212529" font-size="12" font-weight="bold">Swap rows</text>
<rect x="180" y="407" width="42.57554625841743" height="18" fill="#e97d30" rx="3"/>
<text x="230.57554625841743" y="420" fill="#212529" font-size="11" font-weight="bold">9.6ms ★</text>
<rect x="180" y="429" width="45.137145506573475" height="18" fill="#9477ff" rx="3"/>
<text x="233.13714550657346" y="442" fill="#212529" font-size="11" font-weight="normal">10.2ms</text>
<rect x="180" y="451" width="72.34309622340525" height="18" fill="#42b883" rx="3"/>
<text x="260.34309622340527" y="464" fill="#212529" font-size="11" font-weight="normal">16.4ms</text>
<rect x="180" y="473" width="275.416085514366" height="18" fill="#00d8ff" rx="3"/>
<text x="463.416085514366" y="486" fill="#212529" font-size="11" font-weight="normal">62.4ms</text>
<text x="168" y="522" text-anchor="end" fill="#212529" font-size="12" font-weight="bold">Clear rows</text>
<rect x="180" y="498" width="20.316132030768756" height="18" fill="#e97d30" rx="3"/>
<text x="208.31613203076876" y="511" fill="#212529" font-size="11" font-weight="bold">4.6ms ★</text>
<rect x="180" y="520" width="21.111111102336213" height="18" fill="#42b883" rx="3"/>
<text x="209.11111110233622" y="533" fill="#212529" font-size="11" font-weight="normal">4.8ms</text>
<rect x="180" y="542" width="25.262668533114205" height="18" fill="#00d8ff" rx="3"/>
<text x="213.2626685331142" y="555" fill="#212529" font-size="11" font-weight="normal">5.7ms</text>
<rect x="180" y="564" width="50.525337039903725" height="18" fill="#9477ff" rx="3"/>
<text x="238.52533703990372" y="577" fill="#212529" font-size="11" font-weight="normal">11.4ms</text>
</svg>