<svg xmlns="http://www.w3.org/2000/svg" viewBox="0 0 800 750" width="100%" style="font-family: -apple-system, BlinkMacSystemFont, 'Segoe UI', Roboto, sans-serif; background: #f8f9fa;">
<rect width="100%" height="100%" fill="#f8f9fa"/>
<text x="400.0" y="35" text-anchor="middle" fill="#212529" font-size="22" font-weight="bold">Coi vs React vs Vue Benchmark</text>
<text x="400.0" y="52" text-anchor="middle" fill="#6c757d" font-size="11">Chrome 143.0.0.0</text>
<rect x="280.0" y="60" width="14" height="14" fill="#9477ff" rx="3"/>
<text x="300.0" y="72" fill="#212529" font-size="13" font-weight="600">Coi</text>
<rect x="365.0" y="60" width="14" height="14" fill="#00d8ff" rx="3"/>
<text x="385.0" y="72" fill="#212529" font-size="13" font-weight="600">React</text>
<rect x="450.0" y="60" width="14" height="14" fill="#42b883" rx="3"/>
<text x="470.0" y="72" fill="#212529" font-size="13" font-weight="600">Vue</text>
<text x="400.0" y="105" text-anchor="middle" fill="#212529" font-size="16" font-weight="bold">Bundle Size</text>
<text x="400.0" y="123" text-anchor="middle" fill="#6c757d" font-size="12">Counter App - Smaller is better (KB)</text>
<text x="168" y="168" text-anchor="end" fill="#212529" font-size="13" font-weight="bold">Coi</text>
<rect x="180" y="150" width="66.62838437257155" height="26" fill="#9477ff" rx="4"/>
<text x="254.62838437257153" y="168" fill="#212529" font-size="13" font-weight="bold">21.0 KB ★</text>
<text x="168" y="204" text-anchor="end" fill="#212529" font-size="13" font-weight="bold">Vue</text>
<rect x="180" y="186" width="195.09768862053076" height="26" fill="#42b883" rx="4"/>
<text x="383.0976886205308" y="204" fill="#212529" font-size="13" font-weight="normal">61.6 KB</text>
<text x="168" y="240" text-anchor="end" fill="#212529" font-size="13" font-weight="bold">React</text>
<rect x="180" y="222" width="450.0" height="26" fill="#00d8ff" rx="4"/>
<text x="638.0" y="240" fill="#212529" font-size="13" font-weight="normal">142.0 KB</text>
<text x="400.0" y="288" text-anchor="middle" fill="#212529" font-size="16" font-weight="bold">DOM Performance</text>
<text x="400.0" y="306" text-anchor="middle" fill="#6c757d" font-size="12">Rows App - Lower is better (ms)</text>
<text x="168" y="357" text-anchor="end" fill="#212529" font-size="12" font-weight="bold">Create 1,000 rows</text>
<rect x="180" y="333" width="224.24667836550515" height="18" fill="#9477ff" rx="3"/>
<text x="412.24667836550515" y="346" fill="#212529" font-size="11" font-weight="bold">47.1ms ★</text>
<rect x="180" y="355" width="346.2772624717974" height="18" fill="#42b883" rx="3"/>
<text x="534.2772624717975" y="368" fill="#212529" font-size="11" font-weight="normal">72.7ms</text>
<rect x="180" y="377" width="380.0" height="18" fill="#00d8ff" rx="3"/>
<text x="568.0" y="390" fill="#212529" font-size="11" font-weight="normal">79.8ms</text>
<text x="168" y="448" text-anchor="end" fill="#212529" font-size="12" font-weight="bold">Update 1,000 rows</text>
<rect x="180" y="424" width="50.48884432188518" height="18" fill="#9477ff" rx="3"/>
<text x="238.48884432188518" y="437" fill="#212529" font-size="11" font-weight="bold">10.6ms ★</text>
<rect x="180" y="446" width="219.86462772624716" height="18" fill="#00d8ff" rx="3"/>
<text x="407.86462772624714" y="459" fill="#212529" font-size="11" font-weight="normal">46.2ms</text>
<rect x="180" y="468" width="267.3050889947355" height="18" fill="#42b883" rx="3"/>
<text x="455.3050889947355" y="481" fill="#212529" font-size="11" font-weight="normal">56.1ms</text>
<text x="168" y="539" text-anchor="end" fill="#212529" font-size="12" font-weight="bold">Swap rows</text>
<rect x="180" y="515" width="1.9052394083730257" height="18" fill="#9477ff" rx="3"/>
<text x="189.90523940837303" y="528" fill="#212529" font-size="11" font-weight="bold">0.4ms ★</text>
<rect x="180" y="537" width="72.49435948859363" height="18" fill="#42b883" rx="3"/>
<text x="260.49435948859366" y="550" fill="#212529" font-size="11" font-weight="normal">15.2ms</text>
<rect x="180" y="559" width="343.9909751817498" height="18" fill="#00d8ff" rx="3"/>
<text x="531.9909751817497" y="572" fill="#212529" font-size="11" font-weight="normal">72.2ms</text>
<text x="168" y="630" text-anchor="end" fill="#212529" font-size="12" font-weight="bold">Clear rows</text>
<rect x="180" y="606" width="20.2431687139634" height="18" fill="#9477ff" rx="3"/>
<text x="208.2431687139634" y="619" fill="#212529" font-size="11" font-weight="bold">4.2ms ★</text>
<rect x="180" y="628" width="23.62496866382552" height="18" fill="#00d8ff" rx="3"/>
<text x="211.6249686638255" y="641" fill="#212529" font-size="11" font-weight="normal">5.0ms</text>
<rect x="180" y="650" width="28.673853096014035" height="18" fill="#42b883" rx="3"/>
<text x="216.67385309601403" y="663" fill="#212529" font-size="11" font-weight="normal">6.0ms</text>
</svg>